<svg width="22" height="22" viewBox="0 0 22 22" fill="none" xmlns="http://www.w3.org/2000/svg">
<mask id="mask0_107_1072" style="mask-type:luminance" maskUnits="userSpaceOnUse" x="0" y="0" width="22" height="22">
<path fill-rule="evenodd" clip-rule="evenodd" d="M0.500031 0.5H21.5V21.4991H0.500031V0.5Z" fill="white"/>
</mask>
<g mask="url(#mask0_107_1072)">
<path fill-rule="evenodd" clip-rule="evenodd" d="M18.0125 16.846C18.0143 17.0776 17.9397 17.1442 17.7143 17.1389C17.074 17.1267 16.4336 17.117 15.7943 17.1425C15.4733 17.1556 15.3767 17.0723 15.3811 16.7382C15.4005 15.2988 15.3881 13.8585 15.3908 12.4184C15.3908 12.0237 15.3645 11.6325 15.2197 11.2605C14.9741 10.6325 14.5505 10.2072 13.848 10.1457C13.1006 10.0799 12.5577 10.4202 12.1911 11.051C11.9508 11.4641 11.8955 11.9254 11.8964 12.3972C11.8999 13.8524 11.8885 15.3066 11.9051 16.7609C11.9096 17.0741 11.8139 17.1521 11.5139 17.1416C10.8745 17.1196 10.2342 17.125 9.59397 17.1399C9.34837 17.146 9.27373 17.0723 9.27373 16.8232C9.28171 13.827 9.28075 10.8307 9.27557 7.83457C9.27557 7.61967 9.31943 7.5231 9.56143 7.52845C10.2447 7.54328 10.9289 7.54328 11.6121 7.52845C11.849 7.52407 11.9112 7.60994 11.9016 7.83106C11.8867 8.1898 11.8981 8.54933 11.8981 9.00192C12.9112 7.7494 14.1312 7.33812 15.5803 7.6302C16.9837 7.91342 17.9493 9.17656 17.9897 10.8685C18.037 12.8595 18.002 14.8532 18.0125 16.846ZM6.21973 6.41357C5.36971 6.41173 4.70486 5.7381 4.7067 4.88212C4.70837 4.0365 5.39348 3.34717 6.22841 3.34884C7.06439 3.35147 7.74328 4.04351 7.74065 4.88993C7.73881 5.74784 7.07229 6.41524 6.21973 6.41357ZM7.16012 17.1423C6.52149 17.1169 5.88041 17.1265 5.24099 17.1388C5.01197 17.1433 4.90856 17.1011 4.90935 16.8345C4.91821 13.84 4.91724 10.8465 4.91023 7.8519C4.90935 7.61166 4.96733 7.52123 5.22336 7.52834C5.8769 7.54491 6.53202 7.54939 7.18468 7.52649C7.48544 7.51597 7.5407 7.62736 7.53904 7.89927C7.52763 9.3816 7.53369 10.8639 7.53369 12.3471C7.53369 13.8146 7.525 15.2829 7.53991 16.7511C7.54342 17.0494 7.47492 17.1547 7.16012 17.1423ZM21.4552 4.0524C21.3956 3.57604 21.3877 3.08573 21.1246 2.65954C20.273 1.27808 19.0975 0.491215 17.4126 0.500074C13.1499 0.522002 8.8871 0.500074 4.62422 0.514985C3.98401 0.516652 3.3253 0.537702 2.74377 0.881533C1.3245 1.72181 0.491242 2.89627 0.5001 4.61805C0.520186 8.89497 0.5001 13.1717 0.514047 17.4494C0.516678 18.052 0.525537 18.6826 0.841212 19.2256C1.58676 20.5098 2.56922 21.4632 4.18303 21.457C4.22952 21.457 4.26557 21.4789 4.30416 21.4991H17.746C17.8205 21.4324 17.9118 21.4657 17.996 21.4552C18.4792 21.3947 18.9783 21.3921 19.4072 21.1149C20.6062 20.3395 21.4877 19.3633 21.4606 17.8204C21.4606 17.7932 21.4798 17.7688 21.5001 17.746V4.30413C21.4403 4.22782 21.4658 4.13739 21.4552 4.0524Z" fill="#0B66C2"/>
</g>
</svg>
