<svg width="72" height="72" viewBox="0 0 72 72" fill="none" xmlns="http://www.w3.org/2000/svg">
<path d="M52.8522 27.5222C51.2718 26.8211 49.6136 26.3026 47.9113 25.9772C45.5284 30.1127 42.8811 34.6339 40.934 37.7615C41.0371 37.6096 41.1258 37.4866 41.1949 37.4006C41.5487 36.9611 43.833 34.515 47.9221 36.2868C47.9221 36.2868 51.3223 38.2353 50.5003 42.0904C49.6784 45.9454 45.8982 46.191 45.6491 46.191C45.4001 46.191 36.0199 46.1191 36.0199 46.1191C36.0199 46.1191 38.4398 41.8049 40.0265 39.1952C39.4278 40.1226 38.9374 40.8364 38.5986 41.2571C37.7292 42.3369 32.81 47.6302 24.0908 46.0239C20.9495 51.4762 18.2697 56.25 18.2697 56.25H46.2844C47.0063 56.25 57.9381 55.4476 60.3101 44.3027C62.6821 33.1577 54.7803 28.3616 52.8522 27.5222Z" fill="#0049FC"/>
<path d="M30.8066 34.5995C30.4529 35.0389 28.1685 37.4851 24.0794 35.7132C24.0794 35.7132 20.6792 33.7647 21.5012 29.9096C22.3231 26.0546 26.1029 25.8091 26.3519 25.8091C26.601 25.8091 35.9812 25.881 35.9812 25.881C35.9812 25.881 33.5612 30.1952 31.9745 32.8043C32.5732 31.8774 33.0636 31.1636 33.4024 30.7429C34.2718 29.6631 39.1911 24.3698 47.9102 25.9761C51.0516 20.5239 53.7314 15.75 53.7314 15.75H25.7156C24.9937 15.75 14.0619 16.5524 11.6899 27.6974C9.31793 38.8423 17.2203 43.6385 19.1483 44.4778C20.7284 45.1794 22.3861 45.6984 24.0882 46.0244C26.471 41.8889 29.1184 37.3676 31.0655 34.2401C30.9655 34.3889 30.8757 34.5134 30.8066 34.5995Z" fill="#00CBFE"/>
<path opacity="0.5" d="M38.5671 41.2561C38.9059 40.8354 39.3963 40.1216 39.995 39.1942C40.3518 38.6074 40.6653 38.1088 40.901 37.763C42.8481 34.637 45.4954 30.1142 47.8782 25.9787C39.1591 24.3724 34.2398 29.6656 33.3704 30.7455C33.0316 31.1662 32.5413 31.88 31.9426 32.8069C31.5858 33.3941 31.2722 33.8928 31.0366 34.2386C29.0895 37.3646 26.4421 41.8874 24.0593 46.0229C32.7785 47.6292 37.6978 42.3359 38.5671 41.2561Z" fill="#00CBFE"/>
<path opacity="0.5" d="M38.5671 41.2561C38.9059 40.8354 39.3963 40.1216 39.995 39.1942C40.3518 38.6074 40.6653 38.1088 40.901 37.763C42.8481 34.637 45.4954 30.1142 47.8782 25.9787C39.1591 24.3724 34.2398 29.6656 33.3704 30.7455C33.0316 31.1662 32.5413 31.88 31.9426 32.8069C31.5858 33.3941 31.2722 33.8928 31.0366 34.2386C29.0895 37.3646 26.4421 41.8874 24.0593 46.0229C32.7785 47.6292 37.6978 42.3359 38.5671 41.2561Z" fill="#0049FC"/>
</svg>
