<svg width="1590" height="960" viewBox="0 0 1590 960" fill="none" xmlns="http://www.w3.org/2000/svg">
<path d="M10.6245 632.341C10.6245 632.341 31.6245 756.341 183.125 738.841C226.225 733.841 344.125 730.841 388.125 719.841C432.125 708.841 521.125 676.841 547.125 678.841C573.125 680.841 584.125 657.841 584.125 657.841L357.125 526.841L10.6245 632.341Z" fill="black" fill-opacity="0.04"/>
<path d="M481.625 354.341C481.625 354.341 478.625 324.341 503.625 315.341C528.625 306.341 655.248 308.226 702.248 249.226C749.247 190.226 758.725 139.041 821.625 66.3412C961.625 -95.6588 1327.62 -87.6588 1406.62 -90.6588C1406.62 -90.6588 1211.02 -135.059 1169.62 -139.659C1049.02 -153.059 983.525 -155.259 874.625 -82.6588C826.325 -50.4588 741.525 42.7412 727.625 46.3412C695.025 54.9412 682.825 133.841 660.825 164.741C608.625 238.341 638.625 140.341 602.625 168.341C579.225 186.541 578.025 252.741 551.625 262.341C534.225 268.641 519.125 250.941 510.625 261.341C461.625 321.341 458.625 333.341 458.625 333.341L458.725 338.441V346.941C461.925 355.041 464.625 361.341 464.625 361.341L481.625 354.341Z" fill="url(#paint0_linear_106_47)"/>
<path opacity="0.3" d="M481.624 354.341C481.624 354.341 478.624 324.341 503.624 315.341C528.624 306.341 652.624 306.341 699.624 247.341C746.624 188.341 731.624 81.3412 817.624 38.3412C883.224 5.54118 955.624 -70.8588 1020.62 -106.659L1039.62 -87.6588C1039.62 -87.6588 772.624 4.34119 722.624 74.3412C672.624 144.341 619.624 245.341 536.624 275.341C453.624 305.341 458.624 333.341 458.624 333.341L458.724 338.441V346.941C461.924 355.041 464.624 361.341 464.624 361.341L481.624 354.341Z" fill="url(#paint1_linear_106_47)"/>
<path d="M1718.62 1061.34L1624.62 -99.6588L1096.92 -81.6588C1040.62 -99.3588 894.225 -120.059 805.625 55.3412C762.225 141.141 746.625 188.341 699.625 247.341C652.625 306.341 528.625 306.341 503.625 315.341C478.625 324.341 481.625 354.341 481.625 354.341L464.625 361.341C464.625 361.341 461.825 355.041 458.725 346.941L457.625 702.341C457.625 702.341 487.925 712.241 530.325 728.041C553.025 736.441 596.825 786.141 623.625 797.341C648.825 807.941 657.125 779.841 681.225 791.841C716.325 809.241 728.825 848.541 749.625 866.341C772.424 885.841 807.925 887.541 819.825 911.641C832.825 938.141 840.125 966.341 843.725 993.641C847.125 1019.24 851.825 1053.14 856.625 1087.74C876.225 1228.24 911.025 1354.24 1037.62 1418.34C1286.62 1544.34 1579.92 1464.24 1697.62 1328.34C1712.12 1311.54 1718.62 1061.34 1718.62 1061.34Z" fill="url(#paint2_linear_106_47)"/>
<path d="M188.624 697.341C188.624 697.341 214.624 696.341 215.624 704.341C216.624 712.341 213.624 716.341 206.624 716.341C199.624 716.341 187.624 724.341 170.624 723.341C153.624 722.341 131.624 714.341 114.624 713.341C97.6245 712.341 61.9245 712.641 61.9245 712.641C61.9245 712.641 32.6245 685.641 30.6245 679.941C28.6245 674.241 71.6245 674.241 87.6245 680.241C103.624 686.241 103.624 696.241 121.624 690.241C139.624 684.241 150.924 679.941 167.324 686.541C183.624 693.341 188.624 697.341 188.624 697.341Z" fill="black" fill-opacity="0.04"/>
<path d="M10.6245 635.341C6.3245 631.741 -18.3755 493.341 26.6245 464.341C55.7245 445.541 21.7245 396.641 55.6245 392.341C80.8245 389.141 50.8245 379.241 72.6245 347.541C94.4245 315.841 90.9245 326.141 101.825 323.041C112.725 319.941 125.625 326.141 136.425 326.141C147.225 326.141 154.725 322.041 165.625 307.741C176.525 293.441 188.725 274.041 209.125 302.641C217.125 313.941 207.725 330.241 221.325 334.341C234.925 338.441 257.324 354.741 265.525 367.041C273.725 379.341 282.525 395.641 289.325 397.641C296.125 399.641 326.025 386.441 330.125 375.141C334.225 363.841 342.324 352.641 350.525 350.641C358.725 348.641 380.424 337.341 386.525 330.241C392.625 323.141 392.625 314.941 404.225 321.041C415.725 327.141 404.924 349.641 428.025 335.341C451.125 321.041 447.925 383.241 454.725 390.341C461.525 397.441 486.424 364.941 496.625 366.941C506.825 368.941 511.525 361.841 523.125 368.941C534.625 376.041 544.825 399.541 561.125 400.641C577.424 401.641 548.225 391.441 556.325 402.641C564.525 413.841 558.325 440.441 558.325 440.441L567.625 665.341L78.6245 648.341C48.4245 647.741 10.6245 635.341 10.6245 635.341Z" fill="#E2F6FF"/>
<path d="M226.424 399.141C224.424 411.141 216.424 419.141 222.424 423.141C228.424 427.141 230.424 421.141 232.424 417.141C234.424 413.141 242.424 409.141 244.424 409.141C246.424 409.141 250.424 409.141 248.424 403.141C246.424 397.141 244.424 389.141 246.424 385.141C248.424 381.141 260.424 357.141 278.524 381.141C278.524 381.141 278.524 395.141 272.524 405.141C266.524 415.141 284.524 417.141 286.524 421.141C288.524 425.141 290.524 437.141 290.524 437.141C290.524 437.141 306.524 425.141 312.624 423.141C318.624 421.141 318.624 407.141 316.624 405.141C314.624 403.141 310.624 399.141 312.624 395.141C314.624 391.141 320.624 375.141 328.624 377.141C336.624 379.141 344.624 391.141 344.624 395.141C344.624 399.141 348.624 403.141 346.624 407.141C344.624 411.141 340.624 417.141 340.624 417.141C340.624 417.141 352.624 415.141 354.624 403.141C356.624 391.141 354.624 387.141 352.624 383.141C350.624 379.141 348.624 381.141 352.624 375.141C356.624 369.141 362.624 355.141 372.724 361.141C382.824 367.141 380.724 381.141 380.724 381.141C380.724 381.141 378.724 391.141 378.724 397.141C378.724 403.141 382.724 407.141 392.724 411.141C402.724 415.141 406.724 415.141 406.724 415.141C406.724 415.141 414.724 411.141 416.724 409.141C418.724 407.141 422.724 397.141 418.724 395.141C414.724 393.141 410.724 391.141 412.724 389.141C414.724 387.141 414.724 393.141 414.724 387.141C414.724 381.141 418.724 365.141 424.724 365.141C430.724 365.141 442.724 373.141 438.724 385.141C438.724 385.141 442.724 391.141 440.724 393.141C438.724 395.141 436.724 399.141 438.724 407.141C440.724 415.141 458.824 417.141 458.824 417.141C458.824 417.141 478.924 399.141 488.924 405.141C498.924 411.141 519.024 411.141 523.024 409.141C527.024 407.141 539.024 409.141 541.024 399.141C543.024 389.141 533.024 387.141 535.024 381.141C537.024 375.141 531.024 365.141 539.024 363.141C547.024 361.141 555.024 359.141 561.124 365.141C567.124 371.141 563.124 377.141 561.124 383.141C559.124 389.141 551.124 387.141 557.124 393.141C563.124 399.141 563.124 401.141 571.124 405.141C579.124 409.141 554.424 413.341 556.424 415.341C558.424 417.341 522.424 413.341 530.424 449.341C538.424 485.341 510.424 504.341 510.424 504.341C510.424 504.341 496.424 510.341 494.424 512.341C492.424 514.341 552.424 501.341 552.424 503.341C552.424 505.341 533.424 506.341 529.424 510.341C525.424 514.341 524.424 515.341 530.424 535.341C536.424 555.341 520.424 600.341 520.424 606.341C520.424 612.341 538.424 624.341 542.424 632.341C546.424 640.341 548.424 638.341 548.424 638.341L577.124 657.341C577.124 657.341 579.124 665.341 575.124 667.341C571.124 669.341 569.124 677.341 563.124 669.341C557.124 661.341 555.124 655.341 551.124 659.341C547.124 663.341 513.024 661.341 513.024 661.341L288.224 677.941C282.253 678.393 276.251 677.645 270.573 675.741C264.895 673.837 259.655 670.815 255.163 666.855C250.671 662.894 247.017 658.074 244.417 652.679C241.817 647.284 240.324 641.423 240.024 635.441C236.224 553.241 227.924 390.141 226.424 399.141Z" fill="#D2C1FF"/>
<path d="M305.625 392.241C305.625 392.241 302.725 379.041 292.425 382.741C282.125 386.441 275.525 395.241 277.725 399.641C279.925 404.041 285.125 410.641 285.125 410.641L305.625 392.241Z" fill="#B297FF"/>
<path d="M231.125 462.841L223.225 512.641C223.225 512.641 231.125 515.641 234.125 522.741C237.125 529.841 236.025 531.641 236.025 531.641C236.025 531.641 234.925 533.441 231.525 531.041C228.125 528.641 226.825 522.741 226.825 522.741C226.825 522.741 225.125 517.541 224.425 518.541C224.125 519.041 226.425 523.241 225.725 524.441C225.125 525.541 223.825 523.441 222.825 521.541C222.031 520.09 221.057 518.746 219.925 517.541C218.874 516.47 218.087 515.169 217.625 513.741C217.025 510.741 221.525 458.541 221.525 458.541L231.825 463.241L231.125 462.841Z" fill="#B297FF"/>
<path d="M220.225 409.541C220.225 409.541 199.225 387.341 208.925 376.641C218.625 365.941 224.725 365.041 228.325 368.941C231.825 372.841 231.825 375.741 231.825 375.741C231.825 375.741 224.825 373.841 222.125 377.641C219.425 381.441 216.825 386.341 216.825 388.241C216.925 390.141 221.825 404.641 220.225 409.541Z" fill="#B297FF"/>
<path d="M204.725 650.441L202.625 658.941C202.625 658.941 208.925 662.841 212.425 660.441V653.541L204.725 650.441Z" fill="#B297FF"/>
<path d="M211.024 521.741C211.024 521.741 214.524 555.241 213.824 562.841C213.124 570.441 205.424 606.941 204.724 612.241C204.024 617.541 199.124 643.141 201.924 650.241C204.224 655.941 211.924 655.041 214.824 654.541C215.168 654.467 215.482 654.296 215.731 654.048C215.979 653.799 216.151 653.485 216.224 653.141C218.424 643.541 233.724 578.341 237.024 573.441C240.524 568.141 223.724 530.041 223.724 530.041L211.024 521.741Z" fill="#B297FF"/>
<path d="M234.725 421.641C233.925 420.241 233.025 418.441 232.325 416.841C230.725 413.441 230.725 411.641 229.925 408.241C229.809 407.614 229.742 406.979 229.725 406.341C229.725 406.341 226.625 399.641 223.425 400.541C221.625 401.041 219.225 399.541 217.525 398.241C217.635 398.424 217.704 398.629 217.725 398.841C218.325 400.741 218.025 404.141 217.825 405.741C217.79 405.99 217.807 406.243 217.876 406.484C217.945 406.725 218.064 406.949 218.225 407.141C218.825 408.041 219.725 410.141 218.525 414.341C217.625 417.741 216.425 418.941 215.625 419.341C215.283 419.498 214.996 419.753 214.8 420.073C214.604 420.394 214.508 420.766 214.525 421.141V422.641C214.514 422.898 214.556 423.155 214.646 423.395C214.737 423.636 214.875 423.856 215.052 424.043C215.229 424.229 215.442 424.378 215.678 424.481C215.913 424.584 216.167 424.638 216.425 424.641H233.025C233.367 424.622 233.699 424.517 233.991 424.336C234.282 424.154 234.523 423.903 234.692 423.605C234.862 423.306 234.953 422.97 234.959 422.627C234.964 422.284 234.884 421.945 234.725 421.641Z" fill="#B297FF"/>
<path d="M225.025 404.541C225.912 404.279 226.86 404.313 227.726 404.638C228.592 404.963 229.328 405.561 229.825 406.341C230.02 404.018 230.63 401.749 231.625 399.641C231.625 399.641 232.425 397.041 234.025 396.241C231.384 396.764 228.666 396.764 226.025 396.241C223.424 395.708 220.749 395.641 218.125 396.041L216.525 396.141C217.018 396.747 217.422 397.421 217.725 398.141C219.325 399.541 223.125 405.041 225.025 404.541Z" fill="#B297FF"/>
<path d="M201.924 657.341C201.924 657.341 211.024 661.241 213.824 659.641L227.124 668.141C227.124 668.141 229.224 671.241 227.124 672.041C225.024 672.841 206.724 668.941 202.524 668.141C202.624 668.141 195.624 668.941 201.924 657.341Z" fill="#B297FF"/>
<path d="M229.024 369.041C229.024 369.041 237.024 393.841 235.024 400.241C233.024 406.741 215.924 395.941 215.924 395.941L213.924 369.041H229.024Z" fill="#B297FF"/>
<path d="M218.825 407.741C218.825 407.741 194.925 382.941 205.925 371.141C216.925 359.341 224.025 358.241 228.025 362.541C232.025 366.841 232.025 370.041 232.025 370.041C232.025 370.041 224.025 367.841 220.925 372.241C217.925 376.541 215.925 381.941 215.925 384.041C215.925 386.141 220.625 402.341 218.825 407.741Z" fill="#B297FF"/>
<path d="M247.224 477.341L230.624 463.041C230.624 463.041 230.724 501.941 229.024 506.641C227.224 511.341 216.924 509.341 216.224 508.141C211.224 499.741 211.424 447.641 214.424 440.041C217.424 432.441 238.524 458.441 238.524 458.441L247.224 477.341Z" fill="#B297FF"/>
<path d="M205.624 607.441L204.824 611.541L226.124 612.141L227.824 605.141L205.624 607.441Z" fill="#B297FF"/>
<path d="M234.324 606.041L234.524 612.441L256.524 612.141L256.724 605.141L234.324 606.041Z" fill="#B297FF"/>
<path d="M207.124 512.341C207.124 512.341 205.824 520.341 247.724 516.741C247.724 516.741 246.824 506.141 246.824 503.241C246.824 500.341 210.724 507.141 210.724 507.141L207.124 512.341Z" fill="#B297FF"/>
<path d="M214.224 441.441C214.224 441.441 225.624 464.641 245.924 477.241V469.541L219.524 441.541L214.624 438.641L214.224 441.441Z" fill="#B297FF"/>
<path d="M239.824 655.841V663.541C241.128 664.196 242.566 664.537 244.024 664.537C245.483 664.537 246.921 664.196 248.224 663.541V654.341L239.824 655.841Z" fill="#B297FF"/>
<path d="M240.924 503.341C242.556 504.034 243.973 505.15 245.028 506.574C246.083 507.998 246.737 509.679 246.924 511.441C248.824 526.641 253.824 566.741 256.024 574.141C258.324 581.541 256.024 630.341 255.024 649.241C254.724 654.141 251.324 658.141 246.924 658.541C246.624 658.541 246.224 658.641 245.924 658.641C241.024 658.941 236.924 654.841 236.524 649.541C235.524 636.141 233.524 606.741 234.824 588.841C234.951 587.274 234.712 585.699 234.124 584.241C231.124 576.541 221.024 551.241 212.424 540.941C211.486 539.799 210.804 538.469 210.424 537.041C209.024 531.741 206.024 518.641 207.624 505.641C209.124 492.641 230.724 499.341 240.924 503.341Z" fill="#B297FF"/>
<path d="M238.425 661.941C238.425 661.941 244.025 665.041 248.925 661.941C248.925 661.941 263.625 665.041 265.025 666.541C266.425 668.041 266.425 669.641 265.725 670.441C265.025 671.241 257.325 671.241 252.425 671.941C247.525 672.741 239.825 671.941 239.825 671.941C239.825 671.941 234.225 672.041 238.425 661.941Z" fill="#B297FF"/>
<path d="M219.725 417.441C223.396 418.111 227.102 418.578 230.825 418.841C231.996 418.931 233.122 419.33 234.088 419.997C235.055 420.665 235.826 421.577 236.325 422.641C239.425 429.141 244.925 441.341 245.525 446.941C246.125 454.041 246.225 494.541 248.425 503.841C248.828 505.4 248.723 507.047 248.125 508.541C247.981 508.822 247.813 509.089 247.625 509.341C247.025 510.041 226.625 519.041 210.825 514.341C209.44 513.872 208.235 512.986 207.376 511.804C206.516 510.622 206.044 509.203 206.025 507.741C205.525 496.341 204.325 467.541 204.825 460.841C205.233 453.647 205.233 446.435 204.825 439.241C204.808 438.64 204.841 438.037 204.925 437.441C206.302 430.688 209.481 424.434 214.125 419.341C214.813 418.566 215.691 417.983 216.673 417.65C217.655 417.317 218.706 417.245 219.725 417.441Z" fill="#B297FF"/>
<path d="M64.9246 666.441L60.7246 670.741C60.7246 670.741 69.2246 679.241 73.2246 678.041L78.9246 671.841L64.9246 666.441Z" fill="#F2F1F2"/>
<path d="M172.825 688.841L175.125 693.341C175.125 693.341 184.725 686.041 186.425 683.141L181.925 678.041L173.425 688.241L172.825 688.841Z" fill="white"/>
<path d="M111.725 540.241C111.725 540.241 103.225 585.441 102.125 591.041C101.025 596.641 64.2246 659.941 63.0246 661.141C61.8246 662.341 70.9246 679.241 81.1246 673.041C91.3246 666.841 119.025 608.041 123.025 605.241C127.025 602.441 133.825 563.441 133.825 563.441L111.725 540.241Z" fill="#83ACD8"/>
<path d="M138.125 405.341L120.825 393.741C120.925 400.941 117.925 411.441 117.925 411.441C125.625 410.041 125.625 420.541 135.425 422.841C139.925 423.841 139.725 421.341 141.425 420.641L141.025 420.341C139.103 418.871 137.531 416.993 136.425 414.841C135.725 413.441 135.225 412.041 135.825 410.541L138.125 405.341Z" fill="#E0C0AA"/>
<path d="M117.325 397.341C117.325 397.341 118.325 399.441 119.825 399.441C121.425 399.441 123.125 404.041 126.025 405.941C126.777 406.495 127.64 406.879 128.555 407.069C129.469 407.259 130.414 407.249 131.325 407.041L137.725 406.141L140.025 387.741L119.425 396.941L117.325 397.341Z" fill="#ECC9B1"/>
<path d="M185.825 678.141C185.825 678.141 162.625 612.641 163.225 605.841C163.625 600.641 154.225 561.941 149.725 543.841C148.26 538.025 147.587 532.037 147.725 526.041C147.925 518.141 145.025 504.941 143.425 499.041C141.125 490.841 117.825 502.241 109.025 502.841L128.225 515.441C128.225 515.441 116.325 515.441 116.325 521.041C116.325 526.641 119.725 539.641 125.425 548.141C131.125 556.641 134.525 558.841 135.025 567.941C135.625 576.941 137.325 601.841 139.525 608.641C141.825 615.441 146.925 630.141 150.325 637.441C153.725 644.741 165.025 665.141 167.325 671.941C169.625 678.741 172.425 683.841 175.225 686.041C178.025 688.241 176.925 687.741 176.925 687.741L177.225 687.841C180.367 684.864 183.245 681.618 185.825 678.141Z" fill="#A6C7E2"/>
<path d="M175.125 686.041C172.325 683.741 173.425 675.841 171.125 669.141C168.825 662.341 156.425 640.941 153.025 633.541C149.625 626.241 151.925 609.841 149.625 603.041C147.325 596.241 141.125 574.841 140.525 565.741C139.925 556.741 134.325 553.341 128.625 544.841C122.925 536.341 132.025 529.541 132.025 523.941C132.032 522.316 131.676 520.71 130.984 519.24C130.292 517.769 129.281 516.472 128.025 515.441L108.825 502.841C107.325 502.941 106.425 503.041 106.425 503.041L105.825 503.641C105.825 503.641 97.3246 527.341 112.025 544.841C126.725 562.341 119.925 562.941 134.625 590.041C134.625 590.041 137.425 603.041 138.625 615.441C139.725 627.841 165.825 687.741 168.625 690.541C170.225 692.141 173.225 690.941 176.825 687.841L176.525 687.741C176.825 687.741 177.925 688.341 175.125 686.041Z" fill="#A6C7E2"/>
<path d="M175.125 686.041C172.325 683.741 173.425 675.841 171.125 669.141C168.825 662.341 156.425 640.941 153.025 633.541C149.625 626.241 151.925 609.841 149.625 603.041C147.325 596.241 141.125 574.841 140.525 565.741C139.925 556.741 134.325 553.341 128.625 544.841C122.925 536.341 132.025 529.541 132.025 523.941C132.032 522.316 131.676 520.71 130.984 519.24C130.292 517.769 129.281 516.472 128.025 515.441L108.825 502.841C107.325 502.941 106.425 503.041 106.425 503.041L105.825 503.641C105.825 503.641 97.3246 527.341 112.025 544.841C126.725 562.341 119.925 562.941 134.625 590.041C134.625 590.041 137.425 603.041 138.625 615.441C139.725 627.841 165.825 687.741 168.625 690.541C170.225 692.141 173.225 690.941 176.825 687.841L176.525 687.741C176.825 687.741 177.925 688.341 175.125 686.041Z" fill="#A6C7E2"/>
<path d="M141.924 464.441L158.124 454.941L152.424 425.641C149.615 421.913 146.119 418.756 142.124 416.341C135.624 412.441 126.024 407.441 121.624 409.341L119.724 412.041L118.024 412.641H116.924L106.724 417.741C106.724 417.741 123.724 454.441 126.524 462.341C129.324 470.241 120.324 478.141 122.024 482.141C123.724 486.141 114.624 486.641 112.424 494.541C110.124 502.441 123.224 513.141 128.524 515.741L125.524 516.141C137.124 515.741 145.324 513.141 148.124 509.741C158.324 497.341 148.424 448.241 146.424 443.641C138.024 424.541 141.924 464.441 141.924 464.441Z" fill="#2EB5DA"/>
<path d="M129.325 494.541C131.625 486.641 123.625 486.041 121.925 482.141C120.225 478.141 129.325 470.241 126.425 462.341C123.625 454.441 108.925 420.541 108.925 420.541L121.925 413.541L122.525 413.241L123.125 412.641L121.625 409.341C121.148 409.523 120.733 409.835 120.425 410.241L103.325 418.841C103.325 418.841 109.025 466.841 105.025 483.841C101.025 500.741 102.225 504.141 111.225 512.641C114.225 515.441 119.625 516.441 125.425 516.241L128.425 515.841C123.025 513.141 127.025 502.441 129.325 494.541Z" fill="#2EB5DA"/>
<path d="M129.325 494.541C131.625 486.641 124.825 466.341 123.125 462.341C121.425 458.341 129.325 470.241 126.525 462.341C123.725 454.441 109.025 420.541 109.025 420.541L122.025 413.541L122.625 413.241L123.225 412.641L121.625 409.341C121.148 409.523 120.733 409.835 120.425 410.241L103.325 418.841C103.325 418.841 109.025 466.841 105.025 483.841C101.025 500.741 102.225 504.141 111.225 512.641C114.225 515.441 119.625 516.441 125.425 516.241L128.425 515.841C123.025 513.141 127.025 502.441 129.325 494.541Z" fill="#2EB5DA"/>
<path d="M46.1246 682.641L45.0246 682.041C45.0246 682.041 45.6246 686.041 45.0246 686.541L44.4246 687.141C44.4246 687.141 54.6246 688.241 56.9246 689.941L59.2246 691.641L60.9246 689.341C60.9246 689.341 68.8246 692.141 70.0246 694.441C71.1246 696.741 85.8246 702.341 100.625 699.541C100.625 699.541 102.325 699.541 102.325 696.141C102.125 692.841 46.1246 682.641 46.1246 682.641Z" fill="#8FC5DB"/>
<path d="M59.1245 668.541C59.1245 668.541 70.4245 679.241 77.2245 678.141C78.7306 680.704 80.4358 683.145 82.3245 685.441C85.1245 688.841 98.1245 689.441 101.525 692.741C104.925 696.141 101.525 698.341 99.8245 698.341C98.1245 698.341 80.6245 699.441 71.5245 693.241C62.4245 687.041 46.0245 682.541 46.0245 682.541C46.0245 682.541 47.8245 667.941 59.1245 668.541Z" fill="#6FB4DB"/>
<path d="M118.525 406.941C118.525 406.941 136.025 411.441 136.625 410.941L138.025 414.141C138.025 414.141 133.125 416.241 117.025 411.841L118.525 406.941Z" fill="#79A9D8"/>
<path d="M99.3245 428.941C98.7245 436.841 105.525 442.541 106.725 447.541C107.825 452.641 111.125 465.041 115.225 467.341C119.325 469.641 118.625 468.441 118.625 468.441L123.425 467.241C126.547 465.545 129.466 463.499 132.125 461.141C132.125 461.141 120.925 426.741 108.125 419.941C108.325 420.141 104.925 419.741 105.025 419.941C104.925 419.941 99.8245 421.041 99.3245 428.941Z" fill="#2EB5DA"/>
<path d="M103.225 418.841C103.225 418.841 98.1246 420.541 96.4246 429.041C94.7246 437.541 111.725 470.241 111.725 470.241C111.725 470.241 116.025 471.141 123.325 467.341L124.125 466.841C124.125 466.841 123.525 466.841 119.425 464.541C115.325 462.241 111.125 450.941 109.925 445.941C108.725 440.941 100.325 436.341 100.825 428.441C100.86 426.357 101.704 424.368 103.178 422.894C104.652 421.42 106.64 420.577 108.725 420.541C108.625 420.341 108.125 420.241 107.925 420.041C106.542 419.113 104.883 418.689 103.225 418.841Z" fill="#2EB5DA"/>
<path d="M122.625 407.941C122.234 408.186 121.946 408.565 121.817 409.008C121.688 409.45 121.726 409.925 121.925 410.341C122.268 411.238 122.47 412.183 122.525 413.141L116.825 412.041L118.525 406.941L122.625 407.941Z" fill="#79A9D8"/>
<path d="M63.0246 671.941C63.0246 671.941 57.3246 673.641 56.2246 677.041C55.1246 680.441 57.9246 683.241 63.0246 684.941C68.1246 686.641 73.8246 689.441 75.5246 691.141C77.1246 692.741 96.6246 697.841 97.2246 692.341C97.2616 692.007 97.2173 691.669 97.0954 691.355C96.9735 691.042 96.7777 690.763 96.5246 690.541L96.2246 690.241C96.2246 690.241 82.9246 686.041 77.6246 678.641L77.3246 678.041C77.2246 678.141 72.1246 678.741 63.0246 671.941Z" fill="#6FB4DB"/>
<path d="M179.325 712.041L178.325 712.841C178.325 712.841 182.125 714.041 182.425 714.741C182.554 714.996 182.655 715.264 182.725 715.541C182.725 715.541 188.025 706.741 190.525 705.441L193.025 704.141L191.725 701.641C191.725 701.641 197.625 695.641 200.125 695.541C202.625 695.441 214.025 684.541 217.625 670.041C217.625 670.041 218.325 668.541 215.225 667.041C212.125 665.641 179.325 712.041 179.325 712.041Z" fill="#8FC5DB"/>
<path d="M171.925 694.341C171.925 694.341 186.425 688.641 188.225 681.941C191.189 681.649 194.13 681.147 197.024 680.441C201.324 679.341 207.324 667.741 211.824 666.141C216.324 664.541 216.925 668.541 216.225 670.041C215.525 671.541 209.125 687.941 199.725 693.541C190.225 699.141 179.225 712.141 179.225 712.141C179.225 712.141 166.625 704.341 171.925 694.341Z" fill="#6FB4DB"/>
<path d="M176.725 692.241C176.725 692.241 175.924 698.041 178.524 700.541C181.124 703.041 184.924 701.641 188.524 697.741C192.124 693.841 197.125 689.941 199.424 689.041C201.524 688.241 214.324 672.741 209.624 669.941C209.029 669.66 208.346 669.624 207.725 669.841L207.324 670.041C207.324 670.041 197.924 680.241 188.924 682.041H188.324C188.324 682.041 186.625 686.841 176.725 692.241Z" fill="#6FB4DB"/>
<path d="M188.825 480.741V481.641L189.425 481.941V481.341L188.825 480.741Z" fill="#BFBFBF"/>
<path d="M194.125 480.741V481.641H193.225L194.125 480.741Z" fill="#BFBFBF"/>
<path d="M194.225 479.041H193.225V480.041H194.225V479.041Z" fill="#BFBFBF"/>
<path d="M198.525 479.041H197.525V480.041H198.525V479.041Z" fill="#BFBFBF"/>
<path d="M200.125 479.041V479.941H201.025L200.725 479.541L200.125 479.041Z" fill="#BFBFBF"/>
<path d="M205.425 479.041V479.941H204.525L205.425 479.041Z" fill="#BFBFBF"/>
<path d="M205.625 479.641L207.524 492.941C207.524 492.941 175.124 511.041 178.024 498.641C180.924 486.241 182.824 468.241 182.824 468.241" fill="#DEF3FC"/>
<path d="M141.625 373.541L145.425 381.141C144.992 382.806 144.79 384.522 144.825 386.241C145.025 388.241 147.625 392.641 147.625 392.641L146.225 394.241C146.225 394.241 148.025 404.241 146.825 405.441C145.925 406.341 136.925 405.941 131.425 405.641C129.768 405.568 128.153 405.104 126.711 404.287C125.268 403.47 124.039 402.324 123.125 400.941C122.818 400.429 122.551 399.894 122.325 399.341C121.525 396.541 118.425 398.241 117.325 397.341C116.225 396.441 114.925 387.641 116.825 387.241C118.725 386.741 117.025 388.041 117.725 389.041C118.525 390.041 126.625 380.241 130.625 376.741C134.825 373.241 135.225 370.741 141.625 373.541Z" fill="#ECC9B1"/>
<path d="M344.624 595.941C344.724 596.241 344.924 596.541 345.024 596.841C345.596 598.199 345.836 599.673 345.724 601.141C345.186 609.932 345.152 618.746 345.624 627.541L333.824 634.141C337.324 620.641 341.524 605.441 344.624 595.941Z" fill="#8D6AFF"/>
<path d="M312.925 665.641L314.125 661.241C316.625 662.941 320.125 663.141 322.725 662.841V667.641C319.825 667.941 315.025 666.441 312.925 665.641Z" fill="#8D6AFF"/>
<path d="M350.925 670.241V664.541C352.673 665.952 354.882 666.665 357.125 666.541C357.461 666.558 357.798 666.524 358.125 666.441C358.608 666.448 359.087 666.346 359.525 666.141V669.941C356.325 671.541 352.825 670.841 350.925 670.241Z" fill="#8D6AFF"/>
<path d="M333.724 634.141L311.224 646.641C312.024 637.341 314.224 626.241 314.724 623.041C315.424 618.041 323.424 583.841 324.124 576.741C324.424 573.441 323.824 565.041 323.124 556.841C331.524 566.441 341.124 587.841 344.524 595.841C341.524 605.441 337.324 620.641 333.724 634.141Z" fill="#8D6AFF"/>
<path d="M331.124 644.041L311.124 655.041C310.962 652.242 310.995 649.435 311.224 646.641L333.724 634.141C332.824 637.541 331.924 640.941 331.124 644.041Z" fill="#8D6AFF"/>
<path d="M311.925 658.741C311.463 657.558 311.193 656.309 311.125 655.041L331.125 644.041C330.725 645.641 330.325 647.241 329.925 648.641L311.925 658.741Z" fill="#8D6AFF"/>
<path d="M325.225 662.641C324.625 662.741 323.725 662.841 322.725 662.941V661.641L314.825 658.741L314.125 661.241C313.165 660.594 312.404 659.694 311.925 658.641L329.925 648.641C328.325 654.641 327.125 659.341 326.625 661.341C326.548 661.673 326.373 661.974 326.124 662.205C325.874 662.437 325.561 662.589 325.225 662.641Z" fill="#8D6AFF"/>
<path d="M314.125 661.341L314.825 658.841L322.725 661.741V663.041C320.025 663.141 316.525 663.041 314.125 661.341Z" fill="#8D6AFF"/>
<path d="M345.625 601.141C345.752 599.672 345.511 598.194 344.925 596.841C344.834 596.524 344.699 596.221 344.525 595.941C346.025 591.141 347.225 587.741 347.925 586.841C351.525 581.841 334.225 546.241 334.225 546.241L321.225 538.441C321.225 538.441 322.225 547.541 323.125 557.041C322.925 556.841 322.725 556.541 322.525 556.341C321.58 555.301 320.865 554.075 320.425 552.741C318.299 545.599 317.188 538.193 317.125 530.741C317.325 530.541 317.525 530.441 317.725 530.241C318.055 530.557 318.473 530.766 318.925 530.841C325.725 533.241 333.625 533.041 340.525 532.041C343.125 535.541 345.725 538.941 347.125 540.441C345.525 540.541 344.325 540.541 344.325 540.541L346.525 542.741C349.645 543.138 352.804 543.138 355.925 542.741C360.225 542.041 358.125 539.141 358.125 539.141L357.425 538.441L356.125 539.141C356.025 539.141 356.025 539.141 355.925 539.241C355.408 537.823 354.772 536.452 354.025 535.141C353.927 534.919 353.792 534.716 353.625 534.541C353.125 533.941 351.925 532.241 350.225 529.941C352.806 529.223 355.344 528.355 357.825 527.341C357.925 527.741 358.025 528.241 358.125 528.741C360.025 542.941 365.225 580.441 367.525 587.441C368.625 590.641 368.625 601.841 368.325 614.841L345.525 627.541C345.103 618.745 345.136 609.933 345.625 601.141Z" fill="#8D6AFF"/>
<path d="M345.925 635.941C345.825 633.241 345.625 630.441 345.525 627.641L368.325 614.941C368.225 617.841 368.125 620.841 368.025 623.841L345.925 635.941Z" fill="#8D6AFF"/>
<path d="M346.125 639.641C346.025 638.441 346.025 637.141 345.925 635.941L368.125 623.741C368.125 625.041 368.025 626.241 368.025 627.541L346.125 639.641Z" fill="#8D6AFF"/>
<path d="M346.125 639.641L368.025 627.441C367.825 633.641 367.525 639.841 367.225 645.241L347.325 656.241C346.925 651.841 346.525 646.041 346.125 639.641Z" fill="#8D6AFF"/>
<path d="M359.624 666.141V662.441L350.924 663.841V664.441C349.94 663.643 349.124 662.657 348.524 661.542C347.923 660.426 347.549 659.202 347.424 657.941C347.424 657.441 347.324 656.841 347.324 656.241L367.224 645.241C367.024 650.041 366.724 654.341 366.524 657.641C366.402 659.6 365.672 661.472 364.435 662.995C363.198 664.519 361.516 665.619 359.624 666.141Z" fill="#8D6AFF"/>
<path d="M357.125 666.441C354.888 666.517 352.695 665.809 350.925 664.441V663.841L359.625 662.441V666.141C359.125 666.241 358.725 666.341 358.225 666.441H357.125Z" fill="#8D6AFF"/>
<path d="M334.324 546.141C334.324 546.141 351.624 581.741 348.024 586.741C347.324 587.741 346.124 591.041 344.624 595.841C341.224 587.941 331.724 566.441 323.224 556.841C322.324 547.341 321.324 538.241 321.324 538.241L334.324 546.141Z" fill="#8D6AFF"/>
<path d="M337.225 423.641C334.881 423.225 332.488 423.158 330.125 423.441C329.879 422.796 329.542 422.19 329.125 421.641C328.873 421.298 328.721 420.893 328.686 420.469C328.651 420.046 328.733 419.621 328.925 419.241C330.525 415.841 330.225 408.941 331.425 407.641C332.157 406.85 333.152 406.352 334.225 406.241C334.375 406.316 334.511 406.418 334.625 406.541C335.625 407.641 338.725 410.941 341.225 411.741C341.556 411.853 341.842 412.07 342.04 412.358C342.239 412.647 342.338 412.991 342.325 413.341C342.318 413.575 342.37 413.807 342.475 414.016C342.579 414.225 342.734 414.406 342.925 414.541C343.389 414.943 343.769 415.433 344.043 415.982C344.318 416.531 344.481 417.129 344.525 417.741C344.525 419.941 345.925 422.841 344.525 423.541C342.122 424.06 339.64 424.094 337.225 423.641Z" fill="#8D6AFF"/>
<path d="M329.925 440.641C330.207 440.027 330.441 439.392 330.625 438.741C331.425 435.841 331.125 434.141 330.625 433.241C330.785 433.085 330.911 432.898 330.997 432.692C331.083 432.486 331.126 432.265 331.125 432.041C331.407 430.074 331.305 428.07 330.825 426.141C331.973 426.996 333.401 427.388 334.825 427.241C337.725 426.541 340.425 432.141 340.425 432.141C340.405 432.676 340.438 433.212 340.525 433.741C341.225 436.641 341.225 438.041 342.725 440.941L343.325 442.141C343.032 442.059 342.728 442.025 342.425 442.041C338.232 441.844 334.057 441.376 329.925 440.641Z" fill="#8D6AFF"/>
<path d="M335.025 427.241C333.6 427.388 332.173 426.996 331.025 426.141C330.925 425.741 330.825 425.441 330.725 425.041C330.525 424.441 330.325 423.941 330.125 423.441C332.485 423.099 334.887 423.167 337.225 423.641C339.607 424.048 342.042 424.048 344.425 423.641C343.025 424.341 342.225 426.541 342.225 426.541C341.346 428.291 340.803 430.191 340.625 432.141C340.625 432.141 337.925 426.541 335.025 427.241Z" fill="#8D6AFF"/>
<path d="M352.024 521.141C350.324 520.541 348.424 519.941 346.224 519.241C346.629 518.725 346.911 518.124 347.05 517.483C347.188 516.842 347.18 516.178 347.024 515.541C347.542 514.899 347.849 514.112 347.902 513.289C347.956 512.465 347.754 511.645 347.324 510.941C345.646 508.47 343.664 506.219 341.424 504.241C340.513 503.451 339.94 502.341 339.824 501.141C339.324 497.341 338.324 488.741 339.424 484.341C339.524 484.041 339.524 483.741 339.624 483.441C339.824 483.041 340.124 482.641 340.324 482.141C349.924 464.841 345.224 461.241 338.724 455.441C333.724 450.941 325.624 448.641 322.224 447.841C322.61 447.208 323.044 446.606 323.524 446.041L324.224 443.141H323.924L325.524 441.541C325.998 441.094 326.573 440.769 327.201 440.595C327.828 440.421 328.488 440.402 329.124 440.541C329.424 440.541 329.724 440.641 330.024 440.641C329.662 441.596 328.994 442.405 328.124 442.941C327.837 443.077 327.593 443.288 327.417 443.552C327.24 443.817 327.139 444.124 327.124 444.441V445.741C327.122 445.965 327.165 446.187 327.25 446.394C327.335 446.601 327.46 446.789 327.618 446.948C327.776 447.106 327.964 447.231 328.172 447.316C328.379 447.4 328.601 447.443 328.824 447.441H343.624C343.918 447.441 344.207 447.365 344.462 447.22C344.718 447.076 344.931 446.867 345.082 446.616C345.233 446.364 345.317 446.077 345.324 445.784C345.331 445.49 345.263 445.2 345.124 444.941C344.624 444.141 344.124 443.141 343.624 442.141C344.258 442.257 344.858 442.515 345.377 442.896C345.897 443.277 346.323 443.771 346.624 444.341C349.624 449.941 356.124 462.741 356.724 468.341C357.424 475.141 357.424 514.741 359.924 522.241C360.224 523.116 360.224 524.066 359.924 524.941C359.726 525.618 359.422 526.259 359.024 526.841C358.728 527.073 358.388 527.243 358.024 527.341C357.552 525.925 356.768 524.632 355.729 523.559C354.691 522.486 353.425 521.66 352.024 521.141Z" fill="#8D6AFF"/>
<path d="M326.524 456.741C324.624 458.541 322.724 461.841 321.824 467.841C320.424 473.241 319.924 481.641 321.924 494.741C321.924 494.941 322.024 495.241 322.024 495.441C322.024 497.541 322.224 508.941 323.724 516.841C322.026 517.237 320.491 518.145 319.324 519.441C318.024 503.241 315.024 465.641 316.324 461.241C317.147 458.29 318.218 455.413 319.524 452.641C323.092 453.302 326.602 454.238 330.024 455.441C329.382 455.396 328.738 455.488 328.134 455.713C327.53 455.937 326.981 456.287 326.524 456.741Z" fill="#8D6AFF"/>
<path d="M334.125 457.141C338.525 459.241 342.325 462.241 342.925 466.241C343.51 470.341 342.547 474.512 340.225 477.941C340.625 471.541 339.725 463.041 334.125 457.141Z" fill="#8D6AFF"/>
<path d="M344.125 521.141C344.43 520.999 344.703 520.795 344.925 520.541C345.373 520.155 345.776 519.719 346.125 519.241C348.225 519.841 350.225 520.541 351.925 521.141C353.33 521.632 354.598 522.45 355.624 523.528C356.65 524.606 357.404 525.913 357.825 527.341C355.344 528.355 352.806 529.223 350.225 529.941C348.525 527.441 346.325 524.341 344.125 521.141Z" fill="#8D6AFF"/>
<path d="M319.825 526.741C319.825 526.441 319.625 523.641 319.225 519.341C320.391 518.045 321.926 517.137 323.625 516.741C324.225 520.041 325.125 522.741 326.325 523.841C330.625 528.141 334.225 526.041 334.225 526.041L335.625 525.341C337.025 527.341 338.725 529.641 340.425 531.941C333.525 532.941 325.625 533.141 318.825 530.741C318.405 530.582 318.003 530.381 317.625 530.141C318.207 529.758 318.703 529.257 319.081 528.672C319.46 528.087 319.713 527.429 319.825 526.741Z" fill="#8D6AFF"/>
<path d="M343.625 447.441H328.725C328.501 447.443 328.279 447.401 328.072 447.316C327.864 447.231 327.676 447.106 327.518 446.948C327.36 446.789 327.235 446.601 327.15 446.394C327.065 446.187 327.023 445.965 327.025 445.741V444.441C327.012 444.118 327.102 443.799 327.282 443.529C327.461 443.26 327.721 443.054 328.025 442.941C328.868 442.376 329.529 441.576 329.925 440.641C334.129 441.344 338.368 441.811 342.625 442.041C342.928 442.025 343.232 442.059 343.525 442.141C344.025 443.141 344.525 444.041 345.025 444.941C345.182 445.189 345.27 445.475 345.278 445.769C345.286 446.062 345.215 446.353 345.071 446.609C344.928 446.866 344.717 447.078 344.463 447.225C344.208 447.371 343.918 447.446 343.625 447.441Z" fill="#8D6AFF"/>
<path d="M321.925 494.641C320.025 481.541 320.425 473.141 321.825 467.741C321.025 473.041 321.125 480.541 322.625 491.041C322.625 491.241 322.725 491.541 322.725 491.741C322.725 494.241 322.925 508.841 325.125 516.341L323.625 516.641C322.125 508.741 321.925 497.441 321.925 495.241C322.025 495.141 322.025 494.941 321.925 494.641Z" fill="#8D6AFF"/>
<path d="M344.624 517.641C345.013 517.444 345.381 517.21 345.724 516.941C346.23 516.547 346.669 516.075 347.024 515.541C347.192 516.177 347.206 516.844 347.067 517.487C346.928 518.13 346.639 518.731 346.224 519.241L343.224 518.341L344.624 517.641Z" fill="#8D6AFF"/>
<path d="M343.225 518.341C344.225 518.641 345.325 518.941 346.225 519.241C345.874 519.718 345.472 520.154 345.025 520.541C344.725 520.741 344.525 520.941 344.225 521.141C343.725 520.341 343.225 519.541 342.625 518.741L343.225 518.341Z" fill="#8D6AFF"/>
<path d="M327.024 520.341C330.024 523.341 332.624 523.241 334.024 522.841C334.124 523.141 334.324 523.341 334.424 523.641C334.824 524.141 335.224 524.741 335.724 525.441L334.324 526.141C334.324 526.141 330.724 528.341 326.424 523.941C325.224 522.741 324.424 520.041 323.724 516.841L325.224 516.541C325.58 517.91 326.19 519.199 327.024 520.341Z" fill="#8D6AFF"/>
<path d="M353.625 534.441C353.725 534.641 353.925 534.841 354.025 535.041C354.772 536.352 355.408 537.723 355.925 539.141C353.092 539.945 350.168 540.381 347.225 540.441C345.825 538.941 343.225 535.541 340.625 532.041C343.903 531.569 347.144 530.867 350.325 529.941C351.825 532.141 353.125 533.841 353.625 534.441Z" fill="#8D6AFF"/>
<path d="M343.924 521.241C343.976 521.238 344.025 521.215 344.062 521.179C344.099 521.142 344.121 521.093 344.124 521.041C346.224 524.341 348.424 527.441 350.224 529.841C347.044 530.767 343.803 531.469 340.524 531.941C338.824 529.641 337.124 527.341 335.724 525.341L343.924 521.241Z" fill="#8D6AFF"/>
<path d="M335.725 525.341C335.325 524.741 334.825 524.141 334.425 523.541C334.233 523.308 334.096 523.034 334.025 522.741C334.366 522.629 334.7 522.496 335.025 522.341L342.625 518.541C343.125 519.341 343.625 520.141 344.225 520.941C344.125 520.941 344.125 521.041 344.025 521.141L335.725 525.341Z" fill="#8D6AFF"/>
<path d="M342.924 466.141C342.324 462.141 338.524 459.241 334.124 457.041L333.924 456.841C333.408 456.28 332.77 455.844 332.059 455.567C331.349 455.29 330.585 455.178 329.824 455.241C326.402 454.038 322.892 453.102 319.324 452.441C320.101 450.786 321.038 449.212 322.124 447.741C325.524 448.541 333.524 450.841 338.624 455.341C345.124 461.141 349.824 464.741 340.224 482.041C339.924 482.541 339.724 482.941 339.524 483.341C339.908 481.53 340.142 479.69 340.224 477.841C342.618 474.443 343.587 470.244 342.924 466.141Z" fill="#8D6AFF"/>
<path d="M340.725 507.841C339.813 507.051 339.24 505.941 339.125 504.741C338.625 500.941 337.625 492.341 338.725 487.941C339.048 486.591 339.282 485.222 339.425 483.841C339.525 483.741 339.525 483.641 339.625 483.441C339.525 483.741 339.525 484.041 339.425 484.341C338.325 488.741 339.325 497.341 339.825 501.141C339.984 502.328 340.549 503.424 341.425 504.241C343.664 506.219 345.646 508.47 347.325 510.941C347.754 511.645 347.956 512.465 347.902 513.289C347.849 514.112 347.542 514.899 347.025 515.541C346.935 515.192 346.8 514.856 346.625 514.541C344.916 512.093 342.937 509.845 340.725 507.841Z" fill="#8D6AFF"/>
<path d="M326.525 456.741C327.425 455.841 329.625 453.141 330.825 453.041C332.225 453.541 334.425 455.241 335.825 455.841C341.325 461.841 340.625 471.541 340.225 477.941L339.625 478.841C339.625 472.841 338.225 465.741 333.325 460.541C332.352 459.529 331.019 458.94 329.616 458.903C328.212 458.865 326.85 459.382 325.825 460.341C324.325 461.741 321.125 463.441 320.125 467.241C321.025 461.141 324.625 458.441 326.525 456.741Z" fill="#8D6AFF"/>
<path d="M345.725 516.941C345.397 517.231 345.026 517.467 344.625 517.641L341.425 519.241C341.125 519.141 342.525 518.241 342.225 518.141C341.535 517.139 340.49 516.437 339.301 516.177C338.113 515.917 336.87 516.119 335.825 516.741C331.296 516.282 326.728 516.383 322.225 517.041C320.025 509.441 321.525 496.041 321.525 493.541V491.441C319.925 480.941 319.325 472.541 320.125 467.241C321.125 463.441 324.325 461.741 325.825 460.341C326.85 459.383 328.212 458.866 329.616 458.904C331.019 458.941 332.351 459.529 333.325 460.541C338.225 465.741 339.625 472.841 339.625 478.841C338.7 480.07 337.625 481.179 336.425 482.141C336.425 482.141 331.025 498.241 339.325 483.841C339.125 485.441 338.825 486.941 338.625 487.941C337.525 492.341 338.525 500.941 339.025 504.741C339.184 505.928 339.749 507.023 340.625 507.841C342.864 509.819 344.846 512.07 346.525 514.541C346.7 514.856 346.835 515.192 346.925 515.541C346.633 516.091 346.223 516.569 345.725 516.941Z" fill="#8D6AFF"/>
<path d="M327.025 520.341C326.077 519.219 325.424 517.879 325.125 516.441C328.686 516 332.293 516.101 335.825 516.741C335.501 516.943 335.199 517.177 334.925 517.441C334.239 518.139 333.778 519.026 333.6 519.988C333.422 520.95 333.535 521.944 333.925 522.841C332.625 523.141 330.025 523.241 327.025 520.341Z" fill="#8D6AFF"/>
<path d="M342.224 518.141C342.512 518.255 342.816 518.323 343.124 518.341L342.524 518.641C342.463 518.594 342.414 518.533 342.379 518.464C342.345 518.395 342.326 518.318 342.324 518.241L342.224 518.141Z" fill="#8D6AFF"/>
<path d="M342.224 518.141C340.124 517.641 337.924 517.141 335.824 516.741C336.868 516.114 338.113 515.909 339.303 516.169C340.493 516.43 341.538 517.135 342.224 518.141Z" fill="#8D6AFF"/>
<path d="M334.925 517.441C335.199 517.177 335.501 516.943 335.825 516.741C338.025 517.141 340.125 517.541 342.225 518.141C342.225 518.241 342.325 518.241 342.325 518.341C342.386 518.389 342.435 518.449 342.47 518.518C342.504 518.588 342.523 518.664 342.525 518.741L334.925 522.541C334.6 522.696 334.266 522.829 333.925 522.941C333.555 522.024 333.452 521.02 333.629 520.046C333.806 519.073 334.255 518.17 334.925 517.441Z" fill="#8D6AFF"/>
<path d="M339.624 478.841L340.224 477.941C340.128 479.789 339.894 481.628 339.524 483.441C339.424 483.541 339.424 483.641 339.324 483.841C339.527 482.182 339.627 480.512 339.624 478.841Z" fill="#8D6AFF"/>
<path d="M334.025 459.541C334.125 459.541 334.125 459.641 334.225 459.641C332.825 459.241 331.325 458.841 329.925 458.541C331.356 458.503 332.771 458.849 334.025 459.541Z" fill="#8D6AFF"/>
<path d="M339.325 483.741C331.025 498.241 336.425 482.041 336.425 482.041C337.627 481.081 338.702 479.972 339.625 478.741C339.633 480.413 339.533 482.083 339.325 483.741Z" fill="#8D6AFF"/>
<path d="M311.925 665.341C312.27 665.441 312.605 665.575 312.925 665.741L312.625 666.841C312.625 666.841 319.125 670.441 322.725 668.241V667.841C323.21 667.871 323.694 667.768 324.125 667.541L325.425 668.341L315.225 673.941C314.025 673.941 312.025 674.141 309.625 674.341C308.825 673.041 308.725 670.541 311.925 665.341Z" fill="#8D6AFF"/>
<path d="M316.524 673.841H315.224L325.424 668.241L333.224 672.741C324.724 673.041 316.524 673.841 316.524 673.841Z" fill="#8D6AFF"/>
<path d="M312.424 675.441C311.92 675.484 311.412 675.407 310.942 675.215C310.473 675.024 310.056 674.725 309.724 674.341C311.581 674.092 313.451 673.959 315.324 673.941L312.424 675.441Z" fill="#8D6AFF"/>
<path d="M316.524 673.841C316.524 673.841 324.624 673.141 333.224 672.741L337.824 675.441C337.824 675.441 340.024 678.341 337.824 679.041C335.624 679.741 316.824 676.141 312.524 675.441H312.324L315.124 673.841H316.524Z" fill="#8D6AFF"/>
<path d="M312.625 666.741L312.925 665.641C315.025 666.341 319.825 667.941 322.725 667.741V668.141C319.125 670.341 312.625 666.741 312.625 666.741Z" fill="#8D6AFF"/>
<path d="M375.924 675.241C375.924 675.241 357.924 676.641 352.424 673.841C351.072 673.351 349.659 673.048 348.224 672.941C348.555 671.817 348.956 670.715 349.424 669.641C349.87 669.887 350.339 670.088 350.824 670.241V671.141C352.188 671.772 353.672 672.098 355.174 672.098C356.677 672.098 358.161 671.772 359.524 671.141V670.041C359.778 669.946 360.014 669.811 360.224 669.641C360.224 669.641 375.424 672.541 376.824 673.941C377.924 675.041 378.224 676.141 377.924 676.941C377.345 676.279 376.671 675.706 375.924 675.241Z" fill="#8D6AFF"/>
<path d="M363.924 679.041C358.824 679.741 350.924 679.041 350.924 679.041C350.924 679.041 346.624 679.041 348.224 672.941C349.662 673.024 351.079 673.328 352.424 673.841C357.924 676.641 375.924 675.241 375.924 675.241C376.665 675.756 377.367 676.324 378.024 676.941C377.924 677.141 377.824 677.441 377.624 677.541C376.924 678.341 368.924 678.341 363.924 679.041Z" fill="#8D6AFF"/>
<path d="M350.925 671.041V670.141C353.754 671.126 356.844 671.055 359.625 669.941V671.041C358.261 671.672 356.777 671.998 355.275 671.998C353.772 671.998 352.288 671.672 350.925 671.041Z" fill="#8D6AFF"/>
<path d="M348.024 541.241C350.224 542.641 355.224 541.241 355.924 540.541C356.124 540.341 356.024 539.841 355.824 539.141C355.924 539.141 355.924 539.141 356.024 539.041L357.324 538.341L358.024 539.041C358.024 539.041 360.224 541.941 355.824 542.641C352.704 543.038 349.545 543.038 346.424 542.641L344.224 540.441C344.224 540.441 345.324 540.441 347.024 540.341C347.524 540.841 347.824 541.041 348.024 541.241Z" fill="#8D6AFF"/>
<path d="M355.924 540.541C355.224 541.241 350.124 542.741 348.024 541.241C347.709 541.029 347.437 540.757 347.224 540.441C349.824 540.341 353.724 540.041 355.924 539.141C356.028 539.36 356.081 539.599 356.081 539.841C356.081 540.083 356.028 540.322 355.924 540.541Z" fill="#8D6AFF"/>
<path d="M327.025 404.141L329.225 409.941C330.825 414.241 328.825 418.941 327.725 421.041C327.57 421.367 327.517 421.731 327.57 422.087C327.623 422.443 327.782 422.775 328.025 423.041L328.625 423.641C329.048 424.169 329.417 424.738 329.725 425.341C329.825 425.541 329.925 425.641 329.925 425.841C330.306 427.753 330.34 429.717 330.025 431.641C329.98 432.064 330.086 432.489 330.325 432.841C330.446 432.994 330.547 433.162 330.625 433.341C330.361 433.653 330.014 433.884 329.625 434.007C329.236 434.131 328.82 434.143 328.425 434.041C328.225 433.941 327.925 433.941 327.725 433.741C326.325 433.041 317.625 429.441 315.425 426.541C313.225 423.641 314.025 420.041 314.025 417.841C314.025 415.641 311.125 411.341 310.425 409.141C309.625 406.841 310.525 400.441 314.825 401.241C318.525 402.041 322.125 399.741 323.625 396.241C324.025 395.441 324.525 395.041 326.325 395.441C329.925 396.141 326.325 399.041 331.425 397.641C336.525 396.241 335.025 406.341 334.325 406.341H334.225C334.185 406.303 334.138 406.274 334.086 406.257C334.034 406.24 333.979 406.234 333.925 406.241L327.025 404.141Z" fill="#8D6AFF"/>
<path d="M328.825 419.341C328.633 419.721 328.551 420.146 328.586 420.569C328.621 420.993 328.773 421.398 329.025 421.741C329.405 422.314 329.739 422.916 330.025 423.541L328.625 423.641L328.025 423.041C327.76 422.788 327.588 422.454 327.533 422.092C327.479 421.73 327.546 421.361 327.725 421.041C328.825 418.941 330.825 414.241 329.225 409.941L327.025 404.141L333.825 406.141C333.925 406.141 334.025 406.241 334.125 406.241C333.058 406.371 332.069 406.866 331.325 407.641C330.125 408.941 330.525 415.941 328.825 419.341Z" fill="#8D6AFF"/>
<path d="M330.024 431.541C330.339 429.617 330.305 427.653 329.924 425.741C329.824 425.541 329.824 425.441 329.724 425.241C330.101 425.542 330.502 425.81 330.924 426.041C331.304 427.984 331.405 429.97 331.224 431.941C331.138 432.37 330.968 432.778 330.724 433.141C330.647 432.962 330.546 432.794 330.424 432.641C330.287 432.494 330.181 432.321 330.113 432.132C330.044 431.943 330.014 431.742 330.024 431.541Z" fill="#8D6AFF"/>
<path d="M328.625 423.541L330.025 423.441C330.225 423.941 330.425 424.441 330.625 425.041C330.725 425.441 330.825 425.741 330.925 426.141C330.525 425.841 330.025 425.541 329.725 425.341C329.441 424.694 329.071 424.089 328.625 423.541Z" fill="#8D6AFF"/>
<path d="M317.224 529.641L317.824 530.241C317.624 530.441 317.424 530.541 317.224 530.741V529.641Z" fill="#8D6AFF"/>
<path d="M323.724 430.941C323.724 430.941 321.624 444.241 323.724 443.941C325.824 443.741 345.124 443.041 347.224 445.141C349.324 447.241 356.524 439.441 352.224 435.141C347.924 430.941 323.724 430.241 323.724 430.941Z" fill="#8D6AFF"/>
<path d="M351.525 442.341C351.525 442.341 359.325 454.441 361.525 465.141C363.625 475.841 357.925 487.941 357.925 492.141C357.848 494.297 358.084 496.453 358.625 498.541C358.625 498.541 352.225 492.841 349.325 494.241C346.425 495.641 354.325 446.541 347.225 443.741C340.125 440.941 351.525 442.341 351.525 442.341Z" fill="#8D6AFF"/>
<path d="M286.025 417.841C286.025 417.841 288.225 435.441 287.825 437.441C287.425 439.441 295.225 447.641 295.225 447.641L301.325 442.141C301.325 442.141 300.625 430.041 303.225 423.741C305.925 417.341 287.025 414.341 287.025 414.341L286.025 417.841Z" fill="#B297FF"/>
<path d="M294.125 393.941C300.425 391.041 307.725 395.341 308.825 402.141C309.474 407.217 309.542 412.35 309.025 417.441C307.325 438.841 295.525 429.941 292.425 425.941C289.325 421.841 286.925 415.241 286.925 415.241C286.925 415.241 285.525 415.741 283.125 412.041C280.725 408.241 280.625 403.841 282.725 405.441C287.225 408.741 288.325 404.941 289.025 402.741C289.425 401.241 288.925 396.341 294.125 393.941Z" fill="#B297FF"/>
<path d="M315.824 673.641C315.824 673.641 326.024 680.241 329.924 680.841C333.824 681.441 341.624 684.441 343.424 687.441C345.224 690.441 335.624 691.641 327.124 690.441C318.624 689.241 306.324 684.741 303.024 686.241C299.724 687.741 297.924 683.741 297.624 682.241C297.324 680.841 299.024 672.841 299.024 672.841L315.824 673.641Z" fill="#B297FF"/>
<path d="M292.725 670.941C292.725 670.941 298.225 678.141 299.825 680.241C301.425 682.341 320.825 686.241 323.925 688.341C327.025 690.441 321.825 694.641 315.825 694.341C309.825 694.041 308.125 693.441 299.825 692.241C294.287 691.488 288.712 691.054 283.125 690.941C283.125 690.941 277.925 692.241 275.425 688.941C272.925 685.641 272.325 682.041 273.525 679.941C274.725 677.841 278.125 676.841 278.125 672.841C278.125 668.841 292.725 670.941 292.725 670.941Z" fill="#B297FF"/>
<path d="M319.125 522.441C319.125 522.441 329.625 610.541 326.425 619.341C323.325 628.141 322.025 671.941 317.925 674.841C313.925 677.741 300.925 676.141 298.925 672.841C298.925 672.841 307.225 594.041 302.425 579.041C297.725 564.041 295.525 561.941 295.525 561.941C295.525 561.941 297.025 609.041 297.925 613.741C298.825 618.441 295.525 672.141 295.525 672.141C295.525 672.141 281.725 677.941 274.825 670.341C274.825 670.341 272.025 563.841 270.725 543.941C270.025 533.641 281.325 518.441 281.325 518.441L319.125 522.441Z" fill="#B297FF"/>
<path d="M320.025 529.741C320.025 529.741 295.325 545.841 275.525 528.141L277.825 520.441L320.025 522.241V529.741Z" fill="#B297FF"/>
<path d="M281.124 437.741C281.124 437.741 270.424 443.241 269.524 447.241C268.624 451.241 270.724 520.541 276.124 525.041C277.324 526.041 288.524 533.141 305.624 530.641C315.324 529.141 324.825 523.841 325.924 514.041C327.625 498.541 328.124 471.841 323.824 454.441C323.173 451.749 321.822 449.277 319.908 447.275C317.994 445.273 315.585 443.812 312.924 443.041L305.524 440.841L296.824 444.841L281.124 437.741Z" fill="#B297FF"/>
<path d="M301.225 435.341L311.225 442.141L303.525 442.341L296.425 448.141L286.025 444.141L275.425 439.241L284.725 435.341L295.225 440.741L301.225 435.341Z" fill="#B297FF"/>
<path d="M314.224 445.941C314.224 445.941 321.124 494.041 325.024 500.741L327.224 480.941C327.124 480.941 323.424 445.041 314.224 445.941Z" fill="#B297FF"/>
<path d="M295.25 536.425H304.45V531.225H295.25V536.425Z" fill="#B297FF"/>
<path d="M277.625 439.241C277.625 439.241 251.025 446.141 258.425 507.741L258.725 514.641C259.325 522.041 259.625 526.241 266.825 528.141C269.425 528.841 276.225 526.041 277.625 524.541C288.925 512.341 274.925 516.841 273.125 497.441C270.525 470.841 277.625 439.241 277.625 439.241Z" fill="#B297FF"/>
<path d="M297.424 508.341C297.424 508.341 289.624 504.841 281.624 508.141C281.524 508.241 281.324 508.241 281.224 508.341L285.724 512.841L295.624 510.141L297.424 508.341Z" fill="#B297FF"/>
<path d="M297.424 508.341V532.541C297.424 532.541 288.424 536.141 281.224 532.541V508.041C281.224 508.041 285.724 512.841 297.424 508.341Z" fill="#B297FF"/>
<path d="M282.125 514.641C282.125 514.641 279.425 512.841 277.625 512.841C275.825 512.841 274.025 517.341 274.925 520.041C275.825 522.741 282.125 527.241 282.125 527.241V514.641Z" fill="#B297FF"/>
<path d="M278.125 511.541C278.125 511.541 274.525 508.841 271.825 511.541C269.125 514.241 266.425 518.741 265.525 519.641C264.704 520.352 263.797 520.957 262.825 521.441C262.825 521.441 266.425 527.741 269.125 526.841C271.825 525.941 279.025 525.041 279.025 523.241C279.025 521.441 279.925 518.741 279.025 518.741C278.125 518.741 279.025 516.941 279.025 516.041C279.025 515.141 279.025 512.341 278.125 511.541Z" fill="#B297FF"/>
<path d="M118.925 397.341C118.925 397.341 108.825 388.141 111.525 383.541C114.225 378.941 113.325 375.241 117.025 372.441C120.725 369.641 117.925 373.341 124.425 368.741C130.825 364.141 131.825 362.341 133.625 362.341C135.425 362.341 141.025 362.341 141.025 364.141C141.025 365.941 137.325 366.941 141.025 367.841C144.725 368.741 147.025 367.841 147.225 371.541C147.425 375.241 142.825 378.641 142.825 378.641C142.825 378.641 139.125 375.141 132.725 377.941C126.325 380.741 126.525 381.441 126.325 385.341C126.367 385.804 126.29 386.269 126.103 386.694C125.915 387.118 125.622 387.488 125.252 387.769C124.882 388.049 124.446 388.23 123.987 388.295C123.527 388.36 123.058 388.307 122.625 388.141C122.625 388.141 122.625 389.941 119.825 390.941C117.125 391.841 117.125 395.541 118.925 397.341Z" fill="#696969"/>
<path d="M116.625 535.341V550.341H153.625V526.041L116.625 535.341Z" fill="#6690D8"/>
<path d="M133.925 516.341H156.625V537.341H114.625V518.341L133.925 516.341Z" fill="#79A9D8"/>
<path d="M94.6245 458.341L92.6245 469.341L121.625 515.341C121.625 515.341 124.625 526.341 132.625 528.341C140.625 530.341 139.625 529.341 139.625 529.341C139.625 529.341 134.625 515.341 130.625 511.341C126.625 507.341 124.625 507.341 124.625 507.341L104.725 468.741L106.925 454.941L94.6245 458.341Z" fill="#ECC9B1"/>
<path d="M129.625 510.341C129.625 510.341 134.325 507.341 138.425 516.341" stroke="#6690D8"/>
<path d="M138.625 533.341H131.625V535.341H138.625V533.341Z" fill="#6690D8"/>
<path d="M575.625 667.341L1655.62 689.341L1700.62 1325.34C1700.62 1325.34 1364.92 1634.54 1040.62 1295.34C931.625 1181.34 1003.62 922.341 790.625 802.341C743.225 775.641 477.625 695.341 477.625 695.341L575.625 667.341Z" fill="url(#paint3_linear_106_47)"/>
<path d="M703.624 704.341C703.624 704.341 731.625 711.341 724.625 714.341C717.625 717.341 692.624 713.341 683.624 715.341C674.624 717.341 633.624 742.341 612.624 732.341C591.624 722.341 523.625 716.341 516.625 716.341C509.625 716.341 460.625 705.341 457.625 702.341C454.625 699.341 563.625 672.341 574.625 676.341C585.625 680.341 597.624 701.341 615.624 696.341C624.824 693.741 635.324 695.441 643.424 697.641C653.776 700.45 664.555 701.331 675.224 700.241C685.024 699.241 695.224 698.341 696.724 699.041C699.624 700.341 703.624 704.341 703.624 704.341Z" fill="black" fill-opacity="0.38"/>
<path d="M458.725 332.941H578.625V702.341H457.625L458.725 332.941Z" fill="#3B32EF"/>
<path d="M578.625 679.341C578.625 679.341 558.625 665.341 544.625 664.341C530.625 663.341 528.625 660.341 517.625 674.341C506.625 688.341 459.625 701.841 459.625 701.841L578.625 702.341V679.341Z" fill="black" fill-opacity="0.38"/>
<path opacity="0.4" d="M471.924 333.341L543.325 702.641L457.625 702.341L458.625 333.341H471.924Z" fill="#0024D9"/>
<path d="M721.825 448.241C721.825 448.241 730.225 443.841 734.825 441.141C739.425 438.441 740.525 430.741 740.525 430.741L733.924 429.641L724.025 432.941L716.325 443.941L721.825 448.241Z" fill="#FFC692"/>
<path opacity="0.18" d="M578.625 340.341V668.341L458.625 634.341V392.341L578.625 340.341Z" fill="#0024D9"/>
<path opacity="0.54" d="M578.624 407.341L578.224 340.641L1558.68 23.3412L1591.56 966.141L578.624 668.441V407.341Z" fill="url(#paint4_linear_106_47)"/>
<path d="M670.525 393.541C669.325 393.541 662.625 402.041 661.425 405.141C660.225 408.141 662.025 411.241 662.025 411.241C662.025 411.241 647.425 408.241 645.625 405.141C645.625 405.141 649.325 397.841 646.225 391.741C643.225 385.641 656.525 374.141 656.525 374.141L669.925 393.041L670.525 393.541Z" fill="#F5AF7E"/>
<path d="M678.824 363.041L681.024 371.741C680.368 373.383 679.898 375.094 679.624 376.841C679.424 378.941 681.024 384.141 681.024 384.141L679.524 385.441C679.524 385.441 679.524 396.041 678.224 396.941C677.224 397.641 669.224 394.941 664.224 393.341C662.643 392.78 661.209 391.868 660.031 390.673C658.853 389.478 657.962 388.031 657.424 386.441C657.197 385.866 657.062 385.259 657.024 384.641C656.724 381.641 653.624 382.541 652.824 381.341C652.024 380.141 651.524 374.441 653.324 374.441C655.124 374.441 654.124 371.641 654.724 372.941C655.224 374.241 664.324 366.141 668.624 363.541C672.724 361.041 673.524 358.641 678.824 363.041Z" fill="#FFC692"/>
<path d="M661.924 410.741L666.725 417.441L666.924 411.841L661.924 410.741Z" fill="#FE9D00"/>
<path d="M637.125 573.041C637.125 573.041 629.825 591.941 626.825 594.941C623.825 597.941 574.525 643.041 569.625 651.541C564.725 660.041 574.525 674.041 573.925 675.241C573.325 676.441 557.525 658.241 556.925 653.941C556.325 649.641 560.625 650.941 563.025 646.641C565.425 642.341 595.225 589.441 615.325 582.141C615.325 582.141 619.025 575.441 618.325 568.741C617.625 562.041 637.125 573.041 637.125 573.041Z" fill="#F5AF7E"/>
<path d="M663.725 419.741L684.525 468.041L715.225 441.741C715.225 441.741 721.825 446.141 722.925 450.541C722.925 450.541 699.925 476.841 684.525 484.541L659.325 460.341L663.725 419.741Z" fill="#FE6B03"/>
<path d="M635.924 484.241L646.825 486.041C646.825 486.041 651.125 477.541 644.424 464.141C637.724 450.741 641.424 416.641 641.424 416.641L651.725 412.941L643.224 408.641L663.325 411.641C662.725 417.741 670.625 428.041 672.424 432.341C674.224 436.641 677.325 443.341 675.424 446.941C673.625 450.641 669.325 466.441 669.325 476.741C669.295 479.689 669.53 482.634 670.025 485.541C670.432 487.446 670.6 489.394 670.525 491.341C667.225 494.641 637.924 490.941 632.424 490.241C633.224 490.141 634.524 488.841 635.924 484.241Z" fill="#FD8F00"/>
<path d="M631.625 490.241C631.927 490.252 632.227 490.286 632.525 490.341C632.388 490.436 632.221 490.478 632.056 490.46C631.89 490.442 631.737 490.364 631.625 490.241Z" fill="url(#paint5_linear_106_47)"/>
<path d="M647.425 421.541C647.425 421.541 645.025 451.341 651.725 464.741C658.425 478.141 646.825 486.041 646.825 486.041L635.925 484.241C636.325 483.041 636.725 481.641 637.125 479.941C640.125 467.141 632.225 436.141 631.625 431.841C631.025 427.541 643.225 408.741 643.225 408.741L651.725 413.041L647.425 421.541Z" fill="#FE9D00"/>
<path d="M689.425 685.041C690.625 682.041 669.325 644.841 665.125 629.641C660.825 614.441 665.725 596.141 666.325 589.441C666.925 582.741 662.625 573.041 662.625 573.041L654.325 571.841L654.025 571.241C654.025 571.241 663.725 556.641 671.625 564.541C679.525 572.441 675.925 576.141 676.525 587.641C677.125 599.241 690.525 680.141 696.025 683.741C701.525 687.441 714.925 697.141 714.925 697.141L713.125 697.741C711.725 698.241 697.325 696.541 690.225 695.741C690.225 693.441 688.525 687.341 689.425 685.041Z" fill="#FFC692"/>
<path d="M688.225 695.541C687.025 695.441 686.325 695.341 686.325 695.341C686.253 694.912 686.219 694.477 686.225 694.041L686.325 694.141C686.425 694.141 687.225 694.841 688.225 695.541Z" fill="#FFC692"/>
<path d="M690.625 697.341C691.325 697.941 689.725 696.741 688.225 695.541C688.825 695.641 689.425 695.641 690.225 695.741C690.145 696.306 690.289 696.88 690.625 697.341Z" fill="#F5AF7E"/>
<path d="M687.025 686.841C688.225 681.341 671.825 655.841 663.925 635.741C656.025 615.641 661.525 588.241 661.525 588.241L654.425 571.741L662.725 572.941C662.725 572.941 670.025 582.041 669.425 588.741C668.825 595.441 663.325 613.041 667.625 628.341C671.925 643.541 693.825 683.741 692.525 686.741C691.625 689.041 690.325 693.341 690.325 695.741C689.662 695.635 688.995 695.568 688.325 695.541C687.325 694.741 686.425 694.141 686.425 694.141L686.325 694.041C686.19 691.62 686.426 689.192 687.025 686.841Z" fill="#F5AF7E"/>
<path d="M669.924 486.041C669.924 486.041 640.724 487.241 635.824 484.241C635.824 484.241 627.324 495.841 626.124 502.541C624.924 509.241 629.124 522.641 627.924 528.141C626.724 533.641 621.224 565.241 615.724 569.541C615.724 569.541 647.924 584.141 679.624 570.141C679.624 570.141 670.524 536.641 668.624 528.741C666.724 520.841 674.824 503.041 669.924 486.041Z" fill="#0027E0"/>
<path d="M646.824 486.041C646.824 486.041 635.824 498.241 637.124 511.641C638.324 524.941 637.124 525.641 654.124 574.441C654.224 574.841 654.025 575.741 654.225 576.141C654.225 576.141 632.324 576.741 615.924 569.441C615.924 569.441 627.824 535.641 627.524 525.641C627.224 515.641 621.824 504.541 631.824 490.341L636.124 484.241L646.824 486.041Z" fill="#3B32EF"/>
<path d="M733.825 707.541C733.825 707.541 719.825 711.241 708.924 708.141C698.024 705.041 696.124 702.041 694.324 702.041C694.087 702.036 693.85 702.079 693.63 702.168C693.409 702.257 693.209 702.389 693.04 702.557C692.872 702.725 692.74 702.926 692.651 703.146C692.563 703.367 692.519 703.603 692.524 703.841L686.424 703.241C686.424 703.241 685.224 698.941 685.824 697.141C686.424 695.341 696.824 698.941 696.824 698.941L733.825 707.541Z" fill="#103389"/>
<path d="M686.425 694.441C686.425 694.441 708.324 698.441 715.024 697.141C715.024 697.141 726.025 703.241 730.225 705.041C734.525 706.841 734.524 706.841 733.924 707.441C733.324 708.041 710.824 706.841 704.124 703.741C697.424 700.741 693.824 698.841 690.124 699.441C686.424 700.241 684.525 698.341 686.425 694.441Z" fill="url(#paint6_linear_106_47)"/>
<path d="M579.425 695.041C579.425 695.041 567.125 687.541 561.625 677.541C556.225 667.541 557.125 664.141 555.825 662.841C555.657 662.666 555.455 662.526 555.231 662.431C555.008 662.335 554.767 662.286 554.525 662.286C554.282 662.286 554.041 662.335 553.818 662.431C553.594 662.526 553.393 662.666 553.225 662.841L549.425 658.041C549.425 658.041 551.625 654.241 553.425 653.341C555.125 652.541 559.725 662.541 559.725 662.541L579.425 695.041Z" fill="#103389"/>
<path d="M555.924 651.841C555.924 651.841 568.324 670.341 573.824 674.341C573.824 674.341 577.024 686.441 578.724 690.741C580.324 695.041 580.324 695.041 579.524 695.041C578.624 695.041 563.924 677.941 561.424 671.041C558.924 664.141 557.724 660.241 554.824 658.041C551.824 655.841 551.824 653.241 555.924 651.841Z" fill="url(#paint7_linear_106_47)"/>
<path d="M643.825 402.641L664.525 411.141L662.625 417.841L637.125 407.541L643.825 402.641Z" fill="#FE6B03"/>
<path d="M624.224 546.641H669.224C669.224 546.641 667.024 596.041 669.224 606.941C669.224 606.941 632.525 610.041 624.625 605.641C624.625 605.641 627.324 563.241 624.224 546.641Z" fill="#00CBFE"/>
<path d="M669.224 606.941C669.224 606.941 671.824 596.841 677.124 599.941C677.124 599.941 668.425 562.841 678.025 545.341L668.824 546.641C668.824 546.641 661.324 599.041 669.224 606.941Z" fill="#00B3FF"/>
<path d="M624.224 546.641C624.224 546.641 632.925 547.541 639.125 543.141L677.625 545.341C677.625 545.341 679.625 544.741 674.125 551.441C670.225 556.241 667.325 547.941 668.924 549.741C669.424 550.341 668.525 549.741 668.525 549.741" fill="#0589C1"/>
<path d="M640.825 547.941C640.825 547.941 639.125 526.541 647.825 526.541C656.525 526.541 657.025 549.241 657.025 549.241" stroke="#FE6B03"/>
<path d="M645.325 543.241C645.325 543.241 641.025 527.141 645.425 526.341C649.825 525.441 662.925 544.241 662.925 544.241" stroke="#FE6B03"/>
<path d="M629.075 464.516L624.831 474.858L643.625 525.878C643.625 525.878 643.741 532.275 651.149 535.895C652.33 536.539 653.602 536.997 654.923 537.253C656.832 537.482 657.399 537.181 656.336 535.895C656.277 535.052 656.277 534.206 656.337 533.363C656.167 529.972 655.105 526.687 653.259 523.838C650.179 519.094 648.223 518.678 648.223 518.678L636.789 476.788L641.811 463.749L629.075 464.516Z" fill="#ECC9B1"/>
<path d="M653.325 423.641C653.325 423.641 647.325 416.541 641.825 420.941C637.125 424.641 626.924 462.741 623.924 473.841C623.424 475.826 623.528 477.916 624.224 479.841L639.625 521.841C639.625 521.841 650.624 518.541 651.724 516.341L638.525 473.541C638.525 473.541 660.425 443.941 653.325 423.641Z" fill="#FE6B03"/>
<path d="M754.025 425.141L738.225 440.941C737.875 441.284 737.432 441.515 736.951 441.604C736.47 441.693 735.973 441.636 735.525 441.441L725.725 436.941C725.355 436.776 725.034 436.518 724.793 436.192C724.551 435.866 724.398 435.484 724.348 435.082C724.298 434.68 724.352 434.272 724.506 433.897C724.659 433.522 724.907 433.193 725.225 432.941L742.725 418.641C743.042 418.385 743.42 418.214 743.823 418.144C744.225 418.074 744.639 418.107 745.025 418.241L753.025 421.241C753.414 421.355 753.768 421.569 754.05 421.861C754.332 422.153 754.534 422.513 754.635 422.907C754.736 423.3 754.732 423.713 754.625 424.105C754.518 424.496 754.311 424.854 754.025 425.141Z" fill="#0766FF"/>
<path d="M753.225 423.541L737.425 439.341C737.075 439.684 736.632 439.914 736.151 440.003C735.67 440.092 735.173 440.036 734.725 439.841L724.925 435.341C724.555 435.176 724.234 434.918 723.993 434.592C723.751 434.266 723.598 433.884 723.548 433.482C723.498 433.08 723.552 432.672 723.706 432.297C723.859 431.922 724.107 431.593 724.425 431.341L741.925 417.041C742.242 416.785 742.62 416.614 743.023 416.544C743.425 416.474 743.839 416.507 744.225 416.641L752.225 419.641C752.614 419.755 752.968 419.969 753.25 420.261C753.532 420.553 753.734 420.913 753.835 421.306C753.936 421.7 753.932 422.113 753.825 422.505C753.718 422.896 753.511 423.254 753.225 423.541Z" fill="#1F3DFD"/>
<path d="M752.025 423.141L738.224 436.941C737.913 437.245 737.516 437.447 737.087 437.518C736.658 437.59 736.217 437.528 735.825 437.341L727.224 433.441C726.904 433.292 726.627 433.063 726.421 432.776C726.214 432.489 726.085 432.154 726.045 431.803C726.004 431.452 726.055 431.096 726.192 430.77C726.328 430.444 726.546 430.159 726.825 429.941L742.224 417.441C742.512 417.2 742.861 417.045 743.232 416.992C743.603 416.939 743.981 416.991 744.325 417.141L751.325 419.741C751.65 419.862 751.94 420.063 752.166 420.326C752.393 420.59 752.548 420.907 752.618 421.247C752.688 421.587 752.671 421.939 752.567 422.271C752.463 422.602 752.276 422.902 752.025 423.141Z" fill="white"/>
<path d="M735.025 422.941C735.025 422.941 729.525 422.541 729.525 424.141C729.459 425.368 729.224 426.58 728.825 427.741C728.825 427.741 731.925 425.741 733.525 424.941C735.125 424.141 735.725 423.341 735.025 422.941Z" fill="#FFC692"/>
<path d="M110.625 460.341C110.625 460.341 91.6245 461.341 90.6245 460.341C89.6245 459.341 92.1245 421.541 102.425 419.441C112.725 417.341 110.625 460.341 110.625 460.341Z" fill="#2EB5DA"/>
<path d="M460.625 325.341H450.625V708.341H460.625V325.341Z" fill="#0000F0"/>
<path opacity="0.58" d="M555.424 368.041H484.324V409.341H555.424V368.041Z" fill="url(#paint8_linear_106_47)"/>
<path d="M553.725 366.341H482.625V407.641H553.725V366.341Z" fill="url(#paint9_linear_106_47)"/>
<path opacity="0.58" d="M561.125 543.341C565.267 543.341 568.625 539.983 568.625 535.841C568.625 531.699 565.267 528.341 561.125 528.341C556.982 528.341 553.625 531.699 553.625 535.841C553.625 539.983 556.982 543.341 561.125 543.341Z" fill="url(#paint10_linear_106_47)"/>
<path d="M560.125 540.341C564.267 540.341 567.625 536.983 567.625 532.841C567.625 528.699 564.267 525.341 560.125 525.341C555.982 525.341 552.625 528.699 552.625 532.841C552.625 536.983 555.982 540.341 560.125 540.341Z" fill="#FFBA12"/>
<path d="M482.625 381.141L519.125 366.341H482.625L482.825 380.141L482.625 381.141Z" fill="white"/>
<path d="M639.525 392.341C639.525 392.341 625.224 398.941 625.224 410.941C625.224 423.041 628.525 427.441 626.325 432.841C624.125 438.241 620.825 440.541 620.825 446.041C620.825 451.541 630.724 463.641 630.724 463.641C634.106 459.166 637.053 454.377 639.525 449.341C643.925 440.541 645.024 439.441 643.924 427.441C642.824 415.341 637.925 398.341 643.625 393.141C649.425 387.941 649.424 386.841 649.424 386.841L639.525 392.341Z" fill="#180940"/>
<path d="M676.625 359.441C678.025 360.793 679.057 362.479 679.625 364.341C679.625 364.341 663.725 373.641 659.325 374.741C654.925 375.841 652.725 373.141 652.225 375.541C651.725 378.041 653.325 382.441 655.825 382.441C655.825 382.441 653.925 391.241 647.325 392.341C640.725 393.441 639.625 392.341 639.625 392.341C639.625 392.341 637.925 357.941 658.825 353.741C662.031 353.125 665.342 353.324 668.452 354.32C671.562 355.316 674.372 357.077 676.625 359.441Z" fill="#180940"/>
<defs>
<linearGradient id="paint0_linear_106_47" x1="458.625" y1="107.171" x2="1406.62" y2="107.171" gradientUnits="userSpaceOnUse">
<stop stop-color="#B564FF"/>
<stop offset="1" stop-color="#72AEFF"/>
</linearGradient>
<linearGradient id="paint1_linear_106_47" x1="458.567" y1="127.341" x2="1039.62" y2="127.341" gradientUnits="userSpaceOnUse">
<stop stop-color="#B564FF"/>
<stop offset="1" stop-color="#72AEFF"/>
</linearGradient>
<linearGradient id="paint2_linear_106_47" x1="457.625" y1="690.842" x2="1718.62" y2="690.842" gradientUnits="userSpaceOnUse">
<stop stop-color="#B564FF"/>
<stop offset="1" stop-color="#72AEFF"/>
</linearGradient>
<linearGradient id="paint3_linear_106_47" x1="477.625" y1="1060.81" x2="1700.62" y2="1060.81" gradientUnits="userSpaceOnUse">
<stop stop-color="#B564FF"/>
<stop offset="0.3" stop-color="#B564FF"/>
<stop offset="1" stop-color="#72AEFF"/>
</linearGradient>
<linearGradient id="paint4_linear_106_47" x1="578.224" y1="494.741" x2="1591.56" y2="494.741" gradientUnits="userSpaceOnUse">
<stop stop-color="#B564FF"/>
<stop offset="1" stop-color="#72AEFF"/>
</linearGradient>
<linearGradient id="paint5_linear_106_47" x1="632.015" y1="472.057" x2="632.015" y2="490.826" gradientUnits="userSpaceOnUse">
<stop stop-color="#EA278B"/>
<stop offset="0.997" stop-color="#DB57B5"/>
</linearGradient>
<linearGradient id="paint6_linear_106_47" x1="734.109" y1="701.042" x2="685.677" y2="701.042" gradientUnits="userSpaceOnUse">
<stop offset="0.356" stop-color="#31E0FD"/>
<stop offset="1" stop-color="#706AFB"/>
</linearGradient>
<linearGradient id="paint7_linear_106_47" x1="580.05" y1="673.441" x2="552.669" y2="673.441" gradientUnits="userSpaceOnUse">
<stop offset="0.356" stop-color="#31E0FD"/>
<stop offset="1" stop-color="#706AFB"/>
</linearGradient>
<linearGradient id="paint8_linear_106_47" x1="484.253" y1="388.65" x2="555.424" y2="388.65" gradientUnits="userSpaceOnUse">
<stop stop-color="#FE9533"/>
<stop offset="1" stop-color="#EA404F"/>
</linearGradient>
<linearGradient id="paint9_linear_106_47" x1="546.33" y1="415.116" x2="523.541" y2="347.614" gradientUnits="userSpaceOnUse">
<stop stop-color="#CCD8CF"/>
<stop offset="0.657" stop-color="#FFF5E0"/>
</linearGradient>
<linearGradient id="paint10_linear_106_47" x1="553.625" y1="535.841" x2="568.625" y2="535.841" gradientUnits="userSpaceOnUse">
<stop stop-color="#FC3832"/>
<stop offset="1" stop-color="#DC312B"/>
</linearGradient>
</defs>
</svg>
